
<svg width="290" height="55" viewBox="0 0 290 55" fill="none" xmlns="http://www.w3.org/2000/svg">
<path d="M4.01462 8.43029L0.050818 7.77008V4.62142H7.62269C8.77456 4.62142 10.2652 4.55371 12.0947 4.41828C12.5351 4.38443 13.0602 4.35057 13.67 4.31671C14.2798 4.28286 14.9913 4.26593 15.8044 4.26593C20.92 4.26593 24.4942 4.99384 26.527 6.44968C28.5936 7.87165 29.6269 10.0046 29.6269 12.8486C29.6269 15.354 28.8646 17.4531 27.34 19.1459C25.8494 20.8049 23.8844 21.8206 21.4452 22.193C24.7991 22.1591 27.4247 22.9209 29.3219 24.4783C31.253 26.0357 32.2186 28.2025 32.2186 30.9788C32.2186 34.4998 30.982 37.3269 28.5089 39.4598C26.0357 41.5928 21.9025 42.6593 16.1093 42.6593C14.5847 42.6593 13.1788 42.6085 11.8914 42.5069C11.5526 42.5069 10.9767 42.4731 10.1636 42.4054C9.3505 42.3715 8.52047 42.3546 7.67351 42.3546H0V39.3075L4.01462 38.7996V8.43029ZM11.3832 21.0757C11.7559 21.1096 12.5181 21.1265 13.67 21.1265H16.0585C18.1251 21.1265 19.6665 20.4832 20.6829 19.1967C21.6993 17.9101 22.2074 16.0988 22.2074 13.7627C22.2074 11.5282 21.6823 9.90305 20.6321 8.88735C19.5818 7.87165 17.8371 7.36381 15.3978 7.36381C14.7541 7.36381 13.4159 7.43152 11.3832 7.56694V21.0757ZM11.3832 39.0028C12.1624 39.3075 13.6531 39.4598 15.8552 39.4598C18.7349 39.4598 20.8184 38.7827 22.1058 37.4284C23.3932 36.0742 24.0369 34.1105 24.0369 31.5374C24.0369 29.0659 23.444 27.3053 22.2583 26.2558C21.1064 25.1724 19.26 24.6307 16.7191 24.6307C13.8733 24.6307 12.0947 24.6645 11.3832 24.7322V39.0028Z" fill="black"/>
<path d="M48.9416 42.9132C44.4697 42.9132 41.1326 41.6097 38.9305 39.0028C36.7623 36.362 35.6782 32.7732 35.6782 28.2364C35.6782 25.1893 36.2371 22.5485 37.3551 20.3139C38.507 18.0794 40.1162 16.3697 42.1828 15.1847C44.2494 13.9997 46.6379 13.4072 49.3482 13.4072C52.736 13.4072 55.3447 14.3044 57.1741 16.0988C59.0036 17.8593 59.9522 20.3817 60.0199 23.6657C60.0199 25.9003 59.8844 27.5592 59.6134 28.6427H43.0976C43.2331 31.7236 43.9615 34.1274 45.2827 35.8541C46.604 37.5469 48.4843 38.3934 50.9235 38.3934C52.2448 38.3934 53.5999 38.1733 54.989 37.7332C56.4119 37.293 57.5299 36.7682 58.3429 36.1588L59.6134 38.952C58.6987 39.9338 57.208 40.848 55.1414 41.6944C53.1087 42.5069 51.0421 42.9132 48.9416 42.9132ZM52.9054 25.5956C52.9732 24.6476 53.0071 23.9197 53.0071 23.4118C53.0071 18.9089 51.4995 16.6574 48.4843 16.6574C46.8242 16.6574 45.5368 17.3176 44.6221 18.638C43.7074 19.9584 43.1992 22.2776 43.0976 25.5956H52.9054Z" fill="black"/>
<path d="M63.5164 34.4321C63.5164 31.3512 65.0579 29.032 68.1409 27.4746C71.2577 25.9172 75.2723 25.1216 80.1847 25.0877V23.9197C80.1847 22.5315 80.0323 21.4481 79.7274 20.6694C79.4563 19.8907 78.9312 19.3152 78.152 18.9428C77.4067 18.5365 76.3056 18.3333 74.8488 18.3333C73.1888 18.3333 71.6981 18.5534 70.3769 18.9935C69.0556 19.3998 67.6835 19.9415 66.2606 20.6187L64.6853 17.3684C65.1934 16.9283 66.0404 16.4035 67.2262 15.7941C68.4458 15.1847 69.8856 14.6599 71.5457 14.2198C73.2057 13.7458 74.9166 13.5088 76.6783 13.5088C79.2869 13.5088 81.3197 13.8473 82.7764 14.5245C84.2671 15.2016 85.3343 16.285 85.978 17.7747C86.6217 19.2644 86.9435 21.2619 86.9435 23.7673V39.3075H89.6877V42.1514C89.0101 42.3207 88.0446 42.49 86.7911 42.6593C85.5376 42.8286 84.4365 42.9132 83.4879 42.9132C82.336 42.9132 81.5568 42.7439 81.1503 42.4054C80.7776 42.0668 80.5913 41.3727 80.5913 40.3232V38.952C79.6765 39.9677 78.4908 40.8818 77.034 41.6944C75.5772 42.5069 73.9341 42.9132 72.1047 42.9132C70.5463 42.9132 69.1064 42.5916 67.7851 41.9483C66.4978 41.2712 65.4645 40.3062 64.6853 39.0536C63.9061 37.767 63.5164 36.2265 63.5164 34.4321ZM75.357 38.6981C76.0685 38.6981 76.8816 38.4949 77.7963 38.0886C78.711 37.6485 79.5072 37.1237 80.1847 36.5143V28.1856C77.1357 28.1856 74.8488 28.7104 73.3243 29.7599C71.8336 30.7756 71.0883 32.096 71.0883 33.7211C71.0883 35.3463 71.461 36.582 72.2063 37.4284C72.9855 38.2749 74.0358 38.6981 75.357 38.6981Z" fill="black"/>
<path d="M115.778 42.8624C114.66 42.8624 113.847 42.6254 113.339 42.1514C112.83 41.6774 112.576 40.9665 112.576 40.0185V38.6473C111.662 39.7645 110.374 40.7633 108.714 41.6436C107.054 42.49 105.394 42.9132 103.734 42.9132C100.482 42.9132 98.161 42.0837 96.772 40.4247C95.383 38.7319 94.6885 35.9557 94.6885 32.096V17.7747L92.1476 17.0637V14.169L100.787 13.5088H100.837L101.854 14.2198V32.096C101.854 34.5676 102.159 36.2942 102.769 37.2761C103.378 38.2579 104.513 38.7488 106.173 38.7488C108.172 38.7488 110.035 37.9701 111.763 36.4127V17.7747L108.359 17.0129V14.169L117.557 13.5088H117.658L118.878 14.2198V39.2059H121.724L121.673 42.1006C121.537 42.1345 120.911 42.2699 119.793 42.5069C118.675 42.7439 117.336 42.8624 115.778 42.8624Z" fill="black"/>
<path d="M133.852 42.8116C131.718 42.8116 130.143 42.3207 129.126 41.3389C128.11 40.357 127.602 38.7996 127.602 36.6667V18.0286H124.299V15.3878C124.57 15.2862 125.061 15.117 125.772 14.88C126.484 14.6091 127.026 14.389 127.399 14.2198C127.974 13.7796 128.466 13.0179 128.872 11.9344C129.177 11.2235 129.736 9.46291 130.549 6.65282H134.615L134.818 14.1182H142.593V18.0286H134.869V32.2992C134.869 34.1951 134.92 35.5325 135.021 36.3112C135.123 37.0899 135.343 37.5977 135.682 37.8347C136.021 38.0379 136.614 38.1394 137.46 38.1394C138.307 38.1394 139.188 38.0548 140.103 37.8855C141.018 37.6824 141.78 37.4454 142.39 37.1745L143.355 40.0185C142.407 40.7295 141.018 41.3727 139.188 41.9483C137.359 42.5239 135.58 42.8116 133.852 42.8116Z" fill="black"/>
<path d="M152.106 9.49677C150.887 9.49677 149.921 9.14128 149.21 8.43029C148.498 7.7193 148.143 6.80517 148.143 5.6879C148.143 4.40135 148.549 3.33487 149.362 2.48846C150.175 1.64204 151.259 1.21884 152.615 1.21884C153.97 1.21884 155.003 1.59126 155.714 2.3361C156.426 3.04709 156.782 3.94429 156.782 5.0277C156.782 6.38196 156.375 7.46537 155.562 8.27793C154.749 9.09049 153.614 9.49677 152.157 9.49677H152.106ZM149.413 18.9428L145.805 17.9778V14.5753L155.105 13.458H155.206L156.629 14.4737V38.9012L160.034 39.3075V42.3546H145.856V39.3075L149.413 38.8504V18.9428Z" fill="black"/>
<path d="M167.183 18.0794H162.914V15.2355L167.183 14.2198V11.9852C167.183 9.78455 167.759 7.77008 168.911 5.94183C170.097 4.11357 171.672 2.67467 173.637 1.62512C175.602 0.541705 177.685 0 179.887 0C181.039 0 182.123 0.169283 183.14 0.507848V7.00831C182.801 6.66974 182.123 6.33118 181.107 5.99261C180.125 5.65405 179.091 5.48477 178.007 5.48477C176.686 5.48477 175.737 5.82333 175.161 6.50046C174.619 7.14374 174.348 8.261 174.348 9.85226V14.169H180.802V18.0794H174.348V38.9012L179.684 39.3075V42.3546H163.168V39.3075L167.183 38.8504V18.0794Z" fill="black"/>
<path d="M207.34 42.8624C206.222 42.8624 205.408 42.6254 204.9 42.1514C204.392 41.6774 204.138 40.9665 204.138 40.0185V38.6473C203.223 39.7645 201.936 40.7633 200.276 41.6436C198.616 42.49 196.956 42.9132 195.296 42.9132C192.043 42.9132 189.723 42.0837 188.334 40.4247C186.945 38.7319 186.25 35.9557 186.25 32.096V17.7747L183.709 17.0637V14.169L192.348 13.5088H192.399L193.415 14.2198V32.096C193.415 34.5676 193.72 36.2942 194.33 37.2761C194.94 38.2579 196.075 38.7488 197.735 38.7488C199.734 38.7488 201.597 37.9701 203.325 36.4127V17.7747L199.92 17.0129V14.169L209.118 13.5088H209.22L210.439 14.2198V39.2059H213.285L213.234 42.1006C213.099 42.1345 212.472 42.2699 211.354 42.5069C210.236 42.7439 208.898 42.8624 207.34 42.8624Z" fill="black"/>
<path d="M219.824 5.23084L216.063 4.57064V1.82826L225.465 0.710988H225.566L226.939 1.6759V38.9012L230.648 39.3075V42.3546H216.267V39.3075L219.824 38.8504V5.23084Z" fill="black"/>
<path d="M237.094 5.23084L233.334 4.57064V1.82826L242.735 0.710988H242.837L244.209 1.6759V38.9012L247.918 39.3075V42.3546H233.537V39.3075L237.094 38.8504V5.23084Z" fill="black"/>
<path d="M255.94 55C255.33 55 254.669 54.9492 253.958 54.8476C253.28 54.7461 252.789 54.6276 252.484 54.4922V49.0582C252.721 49.1936 253.196 49.329 253.907 49.4645C254.618 49.5999 255.262 49.6676 255.838 49.6676C257.532 49.6676 258.921 49.109 260.005 47.9917C261.123 46.8744 262.156 44.9954 263.105 42.3546H260.361L250.807 17.7239L248.52 17.0637V14.1182H262.495V17.0637L258.785 17.6731L263.308 31.7405L265.138 37.7332L266.713 31.7405L270.88 17.6731L267.679 17.0637V14.1182H278.706V17.0637L276.216 17.6731C274.353 23.361 272.506 28.8458 270.677 34.1274C268.847 39.409 267.78 42.3715 267.475 43.0148C266.391 45.8587 265.358 48.1271 264.375 49.8199C263.393 51.5128 262.224 52.7993 260.869 53.6796C259.514 54.5599 257.871 55 255.94 55Z" fill="black"/>
<path d="M285.325 42.8116C284.275 42.8116 283.36 42.4561 282.581 41.7452C281.801 41.0003 281.412 40.0693 281.412 38.952C281.412 37.6993 281.852 36.6836 282.733 35.9049C283.648 35.0923 284.749 34.6861 286.036 34.6861C287.256 34.6861 288.221 35.0754 288.933 35.8541C289.644 36.599 290 37.4962 290 38.5457C290 39.8661 289.56 40.9157 288.679 41.6944C287.832 42.4392 286.714 42.8116 285.325 42.8116Z" fill="black"/>
</svg>